<?xml version="1.0" standalone="no"?>
<!DOCTYPE svg PUBLIC "-//W3C//DTD SVG 20010904//EN"
 "http://www.w3.org/TR/2001/REC-SVG-20010904/DTD/svg10.dtd">
<svg version="1.0" xmlns="http://www.w3.org/2000/svg"
 width="912.000000pt" height="912.000000pt" viewBox="0 0 912.000000 912.000000"
 preserveAspectRatio="xMidYMid meet">
<metadata>
Created by potrace 1.14, written by Peter Selinger 2001-2017
</metadata>
<g transform="translate(0.000000,912.000000) scale(0.100000,-0.100000)"
fill="#000000" stroke="none">
<path d="M6086 8963 c-1 -1 -22 -5 -47 -8 -62 -8 -174 -43 -239 -76 -236 -119
-409 -361 -436 -611 -4 -34 -8 -907 -9 -1938 -1 -1318 -5 -1890 -13 -1925 -56
-259 -221 -467 -454 -574 -240 -111 -506 -96 -740 40 -63 37 -191 153 -243
219 -32 42 -98 175 -110 225 -2 6 -8 28 -13 50 -17 61 -21 91 -27 205 -12 238
-78 393 -235 550 -165 166 -358 244 -585 236 -127 -5 -158 -10 -246 -42 -277
-100 -485 -346 -527 -624 -9 -61 -9 -278 1 -370 7 -72 10 -94 23 -170 105
-611 436 -1148 941 -1526 341 -256 775 -422 1203 -461 143 -13 532 -5 559 12
4 1 29 6 56 9 346 46 753 221 1065 458 526 398 854 978 938 1653 4 33 7 949 7
2035 l0 1975 -23 75 c-47 149 -103 243 -206 346 -160 159 -336 232 -569 238
-37 1 -69 1 -71 -1z"/>
<path d="M8097 8964 c-1 -1 -21 -4 -44 -7 -353 -49 -634 -326 -682 -673 -8
-54 -12 -684 -14 -2029 -2 -1072 -7 -1968 -11 -1990 -4 -22 -11 -71 -16 -110
-5 -38 -12 -81 -15 -95 -2 -14 -9 -47 -15 -75 -6 -27 -12 -60 -15 -73 -2 -13
-7 -32 -10 -42 -3 -10 -8 -27 -10 -37 -9 -43 -71 -226 -107 -318 -39 -98 -155
-336 -188 -385 -10 -14 -47 -70 -83 -125 -381 -584 -1017 -1024 -1702 -1178
-97 -22 -158 -33 -285 -52 -166 -23 -558 -24 -688 -1 -9 2 -38 6 -63 10 -64 9
-94 15 -174 32 -38 8 -79 17 -91 19 -11 3 -67 18 -123 35 -971 289 -1718 1087
-1940 2075 -21 94 -35 176 -45 266 -15 131 -17 162 -21 299 -3 80 -12 178 -21
219 -63 293 -290 528 -584 607 -124 33 -347 24 -455 -17 -79 -31 -142 -63
-195 -99 -177 -120 -305 -318 -339 -525 -10 -57 -7 -422 3 -510 3 -22 8 -68
11 -102 3 -34 8 -72 10 -85 2 -13 6 -41 9 -63 31 -260 123 -624 231 -915 227
-609 564 -1129 1035 -1598 132 -132 263 -246 430 -375 279 -217 673 -441 1015
-578 209 -83 537 -186 687 -214 13 -3 46 -9 73 -15 28 -6 61 -12 75 -15 49
-10 206 -34 260 -40 30 -3 66 -8 80 -10 89 -14 240 -20 480 -19 281 0 394 6
553 29 20 3 54 7 75 10 86 13 208 33 232 40 8 2 31 7 50 10 51 8 149 32 290
72 586 162 1192 485 1646 878 7 6 38 32 71 60 75 64 320 310 399 400 89 102
232 286 306 395 67 97 188 288 188 296 0 2 11 22 25 43 26 42 159 304 195 386
105 235 220 589 275 845 14 66 44 235 50 280 4 30 9 63 10 72 2 9 7 48 10 85
4 37 9 75 10 83 15 79 19 540 19 2175 0 1045 -4 1924 -7 1954 -28 217 -155
425 -337 550 -141 97 -279 140 -463 145 -32 1 -59 1 -60 0z"/>
</g>
</svg>
